<?xml version="1.0" standalone="no"?>
<!DOCTYPE svg PUBLIC "-//W3C//DTD SVG 20010904//EN"
 "http://www.w3.org/TR/2001/REC-SVG-20010904/DTD/svg10.dtd">
<svg version="1.0" xmlns="http://www.w3.org/2000/svg"
 width="512.000000pt" height="512.000000pt" viewBox="0 0 512.000000 512.000000"
 preserveAspectRatio="xMidYMid meet">
<metadata>
Created by potrace 1.11, written by Peter Selinger 2001-2013
</metadata>
<g transform="translate(0.000000,512.000000) scale(0.100000,-0.100000)"
fill="#000000" stroke="none">
<path d="M2860 5105 c-282 -45 -542 -181 -734 -386 -43 -45 -95 -108 -116
-139 l-39 -57 -78 4 c-210 12 -471 -71 -660 -208 -89 -64 -212 -197 -271 -292
-43 -69 -97 -184 -125 -267 -3 -11 -35 -21 -103 -33 -99 -18 -231 -67 -309
-115 -185 -114 -325 -299 -391 -517 -24 -80 -27 -106 -27 -235 -1 -176 18
-256 93 -405 110 -219 297 -374 545 -452 l90 -28 1735 0 1735 0 98 27 c426
118 733 454 802 879 84 520 -230 1035 -729 1194 l-69 22 -24 84 c-65 226 -159
389 -319 555 -277 287 -709 431 -1104 369z m418 -411 c240 -60 451 -232 563
-459 55 -112 82 -209 100 -368 11 -96 14 -108 33 -112 12 -3 66 -12 121 -20
122 -19 179 -36 270 -84 85 -44 200 -150 253 -235 104 -164 133 -378 77 -566
-50 -167 -190 -332 -345 -408 -170 -84 -5 -76 -1835 -80 -1114 -2 -1652 1
-1700 8 -327 50 -512 399 -370 698 67 141 207 245 364 272 56 9 89 8 207 -8
76 -11 140 -19 142 -18 1 2 11 65 23 142 35 238 99 378 227 496 175 160 372
208 648 157 68 -12 126 -20 127 -18 2 2 28 49 57 104 72 137 124 207 213 292
218 207 521 283 825 207z"/>
<path d="M3900 1697 c-458 -218 -545 -303 -545 -527 0 -84 3 -103 29 -157 34
-74 109 -149 181 -184 42 -19 67 -23 150 -23 93 -1 105 1 166 31 72 36 147
103 184 167 49 84 57 147 62 484 3 171 1 312 -3 312 -5 0 -106 -47 -224 -103z"/>
<path d="M1115 1486 c-340 -166 -431 -232 -487 -353 -77 -164 -27 -358 120
-463 155 -112 357 -86 503 62 52 54 86 125 104 223 20 103 22 645 3 644 -7 0
-116 -51 -243 -113z"/>
<path d="M2580 936 c-411 -194 -519 -268 -578 -394 -24 -50 -27 -69 -27 -157
0 -88 3 -107 27 -157 15 -32 50 -81 78 -108 151 -152 384 -144 544 18 105 106
126 204 126 600 0 149 -3 272 -7 272 -5 0 -78 -33 -163 -74z"/>
</g>
</svg>
